<svg width="29.000000" height="29.005081" viewBox="0 0 29 29.0051" fill="none" xmlns="http://www.w3.org/2000/svg" xmlns:xlink="http://www.w3.org/1999/xlink">
	<desc>
			Created with Pixso.
	</desc>
	<defs/>
	<path id="path" d="M22.69 15.13L16.24 12.75L13.87 6.3C13.8 6.11 13.7 5.93 13.57 5.77C13.45 5.61 13.3 5.47 13.14 5.35C12.97 5.24 12.79 5.15 12.6 5.09C12.4 5.02 12.2 4.99 12 4.99C11.8 4.99 11.6 5.02 11.4 5.09C11.21 5.15 11.03 5.24 10.86 5.35C10.69 5.47 10.55 5.61 10.42 5.77C10.3 5.93 10.2 6.11 10.13 6.3L7.75 12.75L1.3 15.12C1.11 15.19 0.93 15.29 0.77 15.41C0.61 15.54 0.47 15.68 0.35 15.85C0.24 16.02 0.15 16.2 0.09 16.39C0.03 16.59 0 16.78 0 16.99C0 17.19 0.03 17.39 0.09 17.58C0.15 17.78 0.24 17.96 0.35 18.13C0.47 18.29 0.61 18.44 0.77 18.56C0.93 18.69 1.11 18.78 1.3 18.86L7.75 21.25L10.12 27.7C10.19 27.89 10.29 28.06 10.41 28.23C10.54 28.39 10.68 28.53 10.85 28.64C11.02 28.76 11.2 28.85 11.39 28.91C11.59 28.97 11.78 29 11.99 29C12.19 29 12.39 28.97 12.58 28.91C12.78 28.85 12.96 28.76 13.13 28.64C13.29 28.53 13.44 28.39 13.56 28.23C13.69 28.06 13.78 27.89 13.86 27.7L16.23 21.25L22.69 18.87C22.88 18.8 23.05 18.7 23.21 18.58C23.38 18.45 23.51 18.31 23.63 18.14C23.75 17.98 23.84 17.79 23.9 17.6C23.96 17.41 23.99 17.21 23.99 17C23.99 16.8 23.96 16.6 23.9 16.41C23.84 16.21 23.75 16.03 23.63 15.87C23.51 15.7 23.38 15.55 23.21 15.43C23.05 15.3 22.88 15.2 22.69 15.13ZM15.54 19.37C15.27 19.47 15.03 19.62 14.82 19.83C14.62 20.04 14.47 20.28 14.37 20.55L11.99 26.98L9.62 20.54C9.52 20.27 9.37 20.03 9.16 19.83C8.96 19.62 8.72 19.47 8.45 19.37L2.01 17L8.45 14.62C8.72 14.52 8.96 14.37 9.16 14.16C9.37 13.96 9.52 13.72 9.62 13.45L12 7.01L14.37 13.45C14.47 13.72 14.62 13.96 14.83 14.17C15.04 14.37 15.28 14.52 15.55 14.63L21.98 17L15.54 19.37ZM16 4C16 3.86 16.02 3.73 16.07 3.61C16.12 3.49 16.19 3.38 16.29 3.29C16.38 3.19 16.49 3.12 16.61 3.07C16.74 3.02 16.86 3 17 3L19 3L19 1C19 0.86 19.02 0.73 19.07 0.61C19.12 0.49 19.19 0.38 19.29 0.29C19.38 0.19 19.49 0.12 19.61 0.07C19.74 0.02 19.86 0 20 0C20.13 0 20.26 0.02 20.38 0.07C20.5 0.12 20.61 0.19 20.7 0.29C20.8 0.38 20.87 0.49 20.92 0.61C20.97 0.73 21 0.86 21 1L21 3L23 3C23.13 3 23.26 3.02 23.38 3.07C23.5 3.12 23.61 3.19 23.7 3.29C23.8 3.38 23.87 3.49 23.92 3.61C23.97 3.73 24 3.86 24 4C24 4.13 23.97 4.26 23.92 4.38C23.87 4.5 23.8 4.61 23.7 4.7C23.61 4.8 23.5 4.87 23.38 4.92C23.26 4.97 23.13 5 23 5L21 5L21 7C21 7.13 20.97 7.26 20.92 7.38C20.87 7.5 20.8 7.61 20.7 7.7C20.61 7.8 20.5 7.87 20.38 7.92C20.26 7.97 20.13 8 20 8C19.86 8 19.74 7.97 19.61 7.92C19.49 7.87 19.38 7.8 19.29 7.7C19.19 7.61 19.12 7.5 19.07 7.38C19.02 7.26 19 7.13 19 7L19 5L17 5C16.86 5 16.74 4.97 16.61 4.92C16.49 4.87 16.38 4.8 16.29 4.7C16.19 4.61 16.12 4.5 16.07 4.38C16.02 4.26 16 4.13 16 4ZM29 10C29 10.13 28.97 10.26 28.92 10.38C28.87 10.5 28.8 10.61 28.7 10.7C28.61 10.8 28.5 10.87 28.38 10.92C28.26 10.97 28.13 11 28 11L27 11L27 12C27 12.13 26.97 12.26 26.92 12.38C26.87 12.5 26.8 12.61 26.7 12.7C26.61 12.8 26.5 12.87 26.38 12.92C26.26 12.97 26.13 13 26 13C25.86 13 25.74 12.97 25.61 12.92C25.49 12.87 25.38 12.8 25.29 12.7C25.19 12.61 25.12 12.5 25.07 12.38C25.02 12.26 25 12.13 25 12L25 11L24 11C23.86 11 23.74 10.97 23.61 10.92C23.49 10.87 23.38 10.8 23.29 10.7C23.19 10.61 23.12 10.5 23.07 10.38C23.02 10.26 23 10.13 23 10C23 9.86 23.02 9.73 23.07 9.61C23.12 9.49 23.19 9.38 23.29 9.29C23.38 9.19 23.49 9.12 23.61 9.07C23.74 9.02 23.86 9 24 9L25 9L25 8C25 7.86 25.02 7.73 25.07 7.61C25.12 7.49 25.19 7.38 25.29 7.29C25.38 7.19 25.49 7.12 25.61 7.07C25.74 7.02 25.86 7 26 7C26.13 7 26.26 7.02 26.38 7.07C26.5 7.12 26.61 7.19 26.7 7.29C26.8 7.38 26.87 7.49 26.92 7.61C26.97 7.73 27 7.86 27 8L27 9L28 9C28.13 9 28.26 9.02 28.38 9.07C28.5 9.12 28.61 9.19 28.7 9.29C28.8 9.38 28.87 9.49 28.92 9.61C28.97 9.73 29 9.86 29 10Z" fill="#FFCC33" fill-opacity="1.000000" fill-rule="nonzero"/>
</svg>
