<svg width="31.000000" height="31.000000" viewBox="0 0 31 31" fill="none" xmlns="http://www.w3.org/2000/svg" xmlns:xlink="http://www.w3.org/1999/xlink">
	<desc>
			Created with Pixso.
	</desc>
	<defs>
		<clipPath id="clip48_24">
			<rect id="converted (1)" width="31.000000" height="30.999998" fill="white" fill-opacity="0"/>
		</clipPath>
	</defs>
	<g clip-path="url(#clip48_24)">
		<path id="path" d="M16.02 3.41L19.42 6.8L23.4 2.82L23.35 0.51C23.36 0.21 23.52 0.06 23.82 0.06L28.37 0.06C28.68 0.06 28.84 0.21 28.84 0.53C28.59 6.03 29.99 5.61 26.07 5.49L22.08 9.47L25.48 12.87C25.7 13.09 25.7 13.31 25.48 13.54C23.07 16.03 23.88 15.41 21.57 13.32L6.79 28.09C6.61 28.27 6.39 28.36 6.14 28.37C4.12 28.68 2.08 28.84 0.04 28.86C0.06 26.82 0.22 24.78 0.53 22.76C0.53 22.5 0.62 22.28 0.81 22.1L15.57 7.32L13.84 5.58C13.62 5.36 13.62 5.14 13.84 4.92L15.35 3.41C15.58 3.19 15.8 3.19 16.02 3.41Z" fill="#FB4040" fill-opacity="1.000000" fill-rule="nonzero"/>
	</g>
</svg>
