<svg width="31.000000" height="31.000000" viewBox="0 0 31 31" fill="none" xmlns="http://www.w3.org/2000/svg" xmlns:xlink="http://www.w3.org/1999/xlink">
	<desc>
			Created with Pixso.
	</desc>
	<defs>
		<clipPath id="clip48_36">
			<rect id="converted (3)" width="31.000000" height="30.999994" fill="white" fill-opacity="0"/>
		</clipPath>
	</defs>
	<g clip-path="url(#clip48_36)">
		<path id="path" d="M23.82 0.06C23.52 0.06 23.36 0.21 23.35 0.51L23.4 2.82L19.42 6.8L16.02 3.41C15.8 3.19 15.58 3.19 15.35 3.41L13.85 4.92C13.62 5.14 13.62 5.36 13.85 5.59L15.58 7.32L0.81 22.1C0.62 22.28 0.53 22.5 0.53 22.76C0.22 24.78 0.06 26.82 0.04 28.86C2.08 28.84 4.12 28.68 6.14 28.37C6.4 28.36 6.61 28.27 6.79 28.09L13.19 21.7C13.1 21.52 13.02 21.34 12.94 21.16C12.68 20.45 12.55 19.68 12.55 18.92C12.55 18.19 12.67 17.46 12.93 16.77C13.18 16.12 13.56 15.42 14.07 14.89C14.58 14.35 15.2 13.95 15.88 13.68C16.55 13.41 17.25 13.28 17.98 13.28C19 13.28 19.95 13.53 20.84 14.05L21.57 13.32C21.95 13.66 22.23 13.96 22.46 14.21C22.55 14.12 22.64 14.04 22.74 13.97C23.19 13.66 23.69 13.51 24.24 13.51L25.5 13.51C25.69 13.29 25.68 13.08 25.48 12.87L22.08 9.47L26.07 5.49C29.98 5.61 28.59 6.03 28.84 0.53C28.84 0.22 28.68 0.06 28.37 0.06L23.82 0.06Z" fill="#FB4040" fill-opacity="1.000000" fill-rule="nonzero"/>
		<path id="path" d="M24.24 15.89L27.44 15.89C27.57 15.93 27.62 16.01 27.58 16.12C22.4 23.34 19.33 27.53 18.39 28.71C18.33 28.83 18.22 28.88 18.04 28.86L16 28.86C15.76 28.86 15.61 28.79 15.57 28.66C20.92 21.5 23.78 17.56 24.16 16.84C24.21 16.76 24.24 16.66 24.24 16.55C24.24 16.43 24.17 16.26 24.02 16.04C24.05 15.94 24.12 15.89 24.24 15.89ZM14.93 18.92C14.93 18.41 15 17.95 15.16 17.55C15.31 17.15 15.52 16.81 15.78 16.53C16.06 16.25 16.38 16.03 16.76 15.89C17.13 15.74 17.53 15.66 17.98 15.66C18.43 15.66 18.84 15.74 19.21 15.89C19.59 16.03 19.91 16.25 20.17 16.53C20.44 16.81 20.66 17.15 20.81 17.56C20.96 17.95 21.04 18.41 21.04 18.92C21.04 19.43 20.96 19.89 20.81 20.29C20.66 20.69 20.44 21.03 20.17 21.31C19.9 21.59 19.59 21.8 19.21 21.96C18.84 22.1 18.43 22.17 17.98 22.17C17.54 22.17 17.13 22.1 16.76 21.96C16.38 21.8 16.06 21.59 15.78 21.31C15.52 21.03 15.31 20.69 15.16 20.29C15 19.89 14.93 19.43 14.93 18.92ZM19.2 18.92C19.2 18.57 19.16 18.26 19.1 17.98C19.04 17.71 18.96 17.48 18.85 17.29C18.75 17.1 18.63 16.95 18.47 16.85C18.32 16.74 18.15 16.68 17.98 16.68C17.79 16.68 17.62 16.74 17.47 16.84C17.32 16.95 17.2 17.09 17.09 17.29C16.99 17.48 16.9 17.71 16.84 17.98C16.78 18.26 16.76 18.57 16.76 18.92C16.76 19.28 16.78 19.59 16.84 19.86C16.9 20.14 16.99 20.37 17.09 20.57C17.19 20.77 17.32 20.92 17.46 21.02C17.62 21.12 17.79 21.16 17.97 21.16C18.15 21.16 18.32 21.12 18.47 21.02C18.62 20.92 18.75 20.77 18.85 20.57C18.96 20.37 19.04 20.14 19.1 19.86C19.16 19.59 19.2 19.28 19.2 18.92ZM22.77 25.14C22.77 24.62 22.85 24.16 23 23.77C23.16 23.36 23.37 23.02 23.63 22.75C23.9 22.46 24.23 22.25 24.6 22.1C24.98 21.95 25.38 21.87 25.82 21.87C26.27 21.87 26.68 21.95 27.06 22.1C27.43 22.25 27.75 22.46 28.02 22.75C28.29 23.02 28.5 23.36 28.66 23.77C28.81 24.16 28.89 24.62 28.89 25.14C28.89 25.64 28.81 26.1 28.66 26.51C28.5 26.9 28.29 27.24 28.01 27.53C27.75 27.8 27.43 28.02 27.06 28.17C26.68 28.32 26.27 28.39 25.82 28.39C25.38 28.39 24.98 28.32 24.6 28.17C24.23 28.02 23.9 27.8 23.63 27.53C23.37 27.24 23.16 26.9 23 26.51C22.85 26.1 22.77 25.65 22.77 25.14ZM27.04 25.09C27.04 24.74 27.01 24.42 26.94 24.15C26.89 23.87 26.8 23.64 26.69 23.46C26.6 23.26 26.47 23.11 26.32 23.01C26.17 22.9 26.01 22.85 25.82 22.85C25.64 22.85 25.48 22.9 25.33 23.01C25.17 23.11 25.04 23.26 24.93 23.46C24.83 23.64 24.75 23.87 24.68 24.15C24.63 24.42 24.6 24.74 24.6 25.09C24.6 25.44 24.63 25.75 24.68 26.03C24.75 26.3 24.83 26.54 24.93 26.74C25.04 26.93 25.17 27.08 25.33 27.18C25.48 27.28 25.65 27.33 25.82 27.33C26.01 27.33 26.17 27.28 26.32 27.18C26.47 27.08 26.6 26.93 26.69 26.74C26.8 26.54 26.89 26.3 26.94 26.03C27.01 25.75 27.04 25.44 27.04 25.09Z" fill="#FB4040" fill-opacity="1.000000" fill-rule="nonzero"/>
		<path id="path" d="M27.44 15.89C27.57 15.93 27.62 16.01 27.58 16.12C22.4 23.34 19.33 27.53 18.39 28.71C18.33 28.83 18.22 28.88 18.04 28.86L16 28.86C15.76 28.86 15.61 28.79 15.57 28.66C20.92 21.5 23.78 17.56 24.16 16.84C24.21 16.76 24.24 16.66 24.24 16.55C24.24 16.43 24.17 16.26 24.02 16.04C24.05 15.94 24.12 15.89 24.24 15.89L27.44 15.89ZM15.16 17.55C15.31 17.15 15.52 16.81 15.78 16.53C16.06 16.25 16.38 16.03 16.76 15.89C17.13 15.74 17.53 15.66 17.98 15.66C18.43 15.66 18.84 15.74 19.21 15.89C19.59 16.03 19.91 16.25 20.17 16.53C20.44 16.81 20.66 17.15 20.81 17.56C20.96 17.95 21.04 18.41 21.04 18.92C21.04 19.43 20.96 19.89 20.81 20.29C20.66 20.69 20.44 21.03 20.17 21.31C19.9 21.59 19.59 21.8 19.21 21.96C18.84 22.1 18.43 22.17 17.98 22.17C17.54 22.17 17.13 22.1 16.76 21.96C16.38 21.8 16.06 21.59 15.78 21.31C15.52 21.03 15.31 20.69 15.16 20.29C15 19.89 14.93 19.43 14.93 18.92C14.93 18.41 15 17.95 15.16 17.55ZM19.1 17.98C19.04 17.71 18.96 17.48 18.85 17.29C18.75 17.1 18.63 16.95 18.47 16.85C18.32 16.74 18.15 16.68 17.98 16.68C17.79 16.68 17.62 16.74 17.47 16.84C17.32 16.95 17.2 17.09 17.09 17.29C16.99 17.48 16.9 17.71 16.84 17.98C16.78 18.26 16.76 18.57 16.76 18.92C16.76 19.28 16.78 19.59 16.84 19.86C16.9 20.14 16.99 20.37 17.09 20.57C17.19 20.77 17.32 20.92 17.46 21.02C17.62 21.12 17.79 21.16 17.97 21.16C18.15 21.16 18.32 21.12 18.47 21.02C18.62 20.92 18.75 20.77 18.85 20.57C18.96 20.37 19.04 20.14 19.1 19.86C19.16 19.59 19.2 19.28 19.2 18.92C19.2 18.57 19.16 18.26 19.1 17.98ZM23 23.77C23.16 23.36 23.37 23.02 23.63 22.75C23.9 22.46 24.23 22.25 24.6 22.1C24.98 21.95 25.38 21.87 25.82 21.87C26.27 21.87 26.68 21.95 27.06 22.1C27.43 22.25 27.75 22.46 28.02 22.75C28.29 23.02 28.5 23.36 28.66 23.77C28.81 24.16 28.89 24.62 28.89 25.14C28.89 25.64 28.81 26.1 28.66 26.51C28.5 26.9 28.29 27.24 28.01 27.53C27.75 27.8 27.43 28.02 27.06 28.17C26.68 28.32 26.27 28.39 25.82 28.39C25.38 28.39 24.98 28.32 24.6 28.17C24.23 28.02 23.9 27.8 23.63 27.53C23.37 27.24 23.16 26.9 23 26.51C22.85 26.1 22.77 25.65 22.77 25.14C22.77 24.62 22.85 24.16 23 23.77ZM26.94 24.15C26.89 23.87 26.8 23.64 26.69 23.46C26.6 23.26 26.47 23.11 26.32 23.01C26.17 22.9 26.01 22.85 25.82 22.85C25.64 22.85 25.48 22.9 25.33 23.01C25.17 23.11 25.04 23.26 24.93 23.46C24.83 23.64 24.75 23.87 24.68 24.15C24.63 24.42 24.6 24.74 24.6 25.09C24.6 25.44 24.63 25.75 24.68 26.03C24.75 26.3 24.83 26.54 24.93 26.74C25.04 26.93 25.17 27.08 25.33 27.18C25.48 27.28 25.65 27.33 25.82 27.33C26.01 27.33 26.17 27.28 26.32 27.18C26.47 27.08 26.6 26.93 26.69 26.74C26.8 26.54 26.89 26.3 26.94 26.03C27.01 25.75 27.04 25.44 27.04 25.09C27.04 24.74 27.01 24.42 26.94 24.15Z" stroke="#000000" stroke-opacity="0" stroke-width="1.722933"/>
	</g>
</svg>
