<svg width="31.000000" height="31.000000" viewBox="0 0 31 31" fill="none" xmlns="http://www.w3.org/2000/svg" xmlns:xlink="http://www.w3.org/1999/xlink">
	<desc>
			Created with Pixso.
	</desc>
	<defs>
		<clipPath id="clip48_15">
			<rect id="converted" width="31.000000" height="30.999998" fill="white" fill-opacity="0"/>
		</clipPath>
	</defs>
	<g clip-path="url(#clip48_15)">
		<path id="path" d="M7.23 15.81C7.38 15.3 7.69 14.9 8.16 14.63C11.28 12.88 15.57 19.01 21.68 15.77C25.66 28.34 3.3 28.68 7.23 15.81ZM14.46 28.93C7.49 28.93 0.51 23.92 3.85 13.92C6.09 8.71 9.33 4.21 13.57 0.44C13.82 0.19 14.12 0.04 14.46 0C14.81 0.04 15.11 0.19 15.35 0.43C19.6 4.21 22.84 8.71 25.08 13.92C28.41 23.92 21.44 28.93 14.46 28.93ZM14.92 3.74C14.77 3.66 14.62 3.6 14.46 3.58C14.3 3.6 14.15 3.66 14.01 3.74C10.47 6.47 5.58 14.65 5.86 19.03C6.12 21.19 7.07 22.97 8.73 24.38C10.38 25.78 12.29 26.44 14.46 26.35C16.63 26.44 18.54 25.79 20.2 24.38C21.85 22.98 22.81 21.19 23.06 19.04C23.35 14.65 18.45 6.47 14.92 3.74Z" fill="#A7E855" fill-opacity="1.000000" fill-rule="nonzero"/>
		<path id="path" d="M16.49 16.59C17.48 15.46 18.56 14.42 19.74 13.47C20.91 12.62 21.68 15.77 21.68 15.77C20.05 16.67 18.32 16.94 16.49 16.59Z" fill="#FFFFFF" fill-opacity="0.494118" fill-rule="nonzero"/>
	</g>
</svg>
