<svg width="31.450684" height="20.015205" viewBox="0 0 31.4507 20.0152" fill="none" xmlns="http://www.w3.org/2000/svg" xmlns:xlink="http://www.w3.org/1999/xlink">
	<desc>
			Created with Pixso.
	</desc>
	<defs/>
	<path id="path" d="M14.38 13.74C14.6 13.59 14.82 13.43 15.02 13.26C15.23 13.09 15.42 12.91 15.61 12.72C15.79 12.53 15.97 12.33 16.13 12.12C16.29 11.91 16.45 11.69 16.59 11.46C16.73 11.24 16.86 11.01 16.97 10.77C17.09 10.53 17.19 10.28 17.28 10.03C17.37 9.78 17.45 9.53 17.51 9.27C17.58 9.01 17.62 8.75 17.66 8.48C17.69 8.22 17.71 7.95 17.72 7.69C17.73 7.42 17.72 7.15 17.7 6.89C17.68 6.62 17.64 6.36 17.59 6.1C17.54 5.84 17.48 5.58 17.4 5.32C17.33 5.07 17.24 4.82 17.13 4.57C17.03 4.33 16.91 4.09 16.78 3.86C16.65 3.62 16.51 3.4 16.36 3.18C16.21 2.96 16.04 2.75 15.87 2.55C15.69 2.35 15.5 2.16 15.31 1.98C15.11 1.8 14.91 1.63 14.69 1.47C14.48 1.31 14.26 1.17 14.03 1.03C13.8 0.9 13.56 0.77 13.32 0.66C13.08 0.55 12.83 0.46 12.58 0.37C12.33 0.29 12.07 0.22 11.81 0.16C11.55 0.11 11.29 0.07 11.02 0.04C10.76 0.01 10.49 0 10.22 0C9.96 0 9.69 0.01 9.43 0.04C9.16 0.07 8.9 0.11 8.64 0.16C8.38 0.22 8.12 0.29 7.87 0.37C7.62 0.46 7.37 0.55 7.13 0.66C6.88 0.77 6.65 0.9 6.42 1.03C6.19 1.17 5.97 1.31 5.75 1.47C5.54 1.63 5.34 1.8 5.14 1.98C4.94 2.16 4.76 2.35 4.58 2.55C4.41 2.75 4.24 2.96 4.09 3.18C3.94 3.4 3.8 3.62 3.67 3.86C3.54 4.09 3.42 4.33 3.32 4.57C3.21 4.82 3.12 5.07 3.05 5.32C2.97 5.58 2.9 5.84 2.86 6.1C2.81 6.36 2.77 6.62 2.75 6.89C2.73 7.15 2.72 7.42 2.73 7.69C2.73 7.95 2.75 8.22 2.79 8.48C2.82 8.75 2.87 9.01 2.94 9.27C3 9.53 3.08 9.78 3.17 10.03C3.26 10.28 3.36 10.53 3.48 10.77C3.59 11.01 3.72 11.24 3.86 11.46C4 11.69 4.15 11.91 4.32 12.12C4.48 12.33 4.66 12.53 4.84 12.72C5.03 12.91 5.22 13.09 5.43 13.26C5.63 13.43 5.85 13.59 6.07 13.74C4.86 14.18 3.75 14.81 2.74 15.62C1.73 16.42 0.87 17.37 0.17 18.45C0.09 18.56 0.04 18.68 0.01 18.82C-0.01 18.95 -0.01 19.08 0.02 19.21C0.04 19.34 0.09 19.46 0.17 19.57C0.24 19.68 0.34 19.77 0.45 19.85C0.56 19.92 0.68 19.97 0.81 19.99C0.95 20.02 1.08 20.02 1.21 19.99C1.34 19.96 1.46 19.91 1.57 19.83C1.68 19.75 1.77 19.66 1.84 19.54C2.07 19.2 2.31 18.86 2.58 18.55C2.85 18.23 3.13 17.93 3.44 17.65C3.74 17.37 4.07 17.11 4.4 16.86C4.74 16.62 5.09 16.4 5.46 16.21C5.82 16.01 6.2 15.83 6.58 15.68C6.97 15.53 7.36 15.4 7.76 15.3C8.17 15.2 8.57 15.12 8.98 15.07C9.4 15.02 9.81 15 10.22 15C10.64 15 11.05 15.02 11.46 15.07C11.88 15.12 12.28 15.2 12.68 15.3C13.09 15.4 13.48 15.53 13.87 15.68C14.25 15.83 14.63 16.01 14.99 16.21C15.36 16.4 15.71 16.62 16.05 16.86C16.38 17.11 16.7 17.37 17.01 17.65C17.31 17.93 17.6 18.23 17.87 18.55C18.14 18.86 18.38 19.2 18.61 19.54C18.68 19.65 18.77 19.74 18.88 19.82C18.99 19.89 19.11 19.94 19.24 19.97C19.37 19.99 19.5 19.99 19.63 19.97C19.75 19.94 19.87 19.9 19.98 19.82C20.09 19.75 20.19 19.66 20.26 19.55C20.34 19.45 20.39 19.33 20.41 19.2C20.44 19.07 20.45 18.94 20.42 18.81C20.4 18.68 20.35 18.56 20.28 18.45C19.58 17.37 18.72 16.42 17.71 15.62C16.7 14.81 15.59 14.18 14.38 13.74ZM4.72 7.5C4.72 7.14 4.76 6.78 4.83 6.43C4.9 6.07 5 5.73 5.14 5.39C5.28 5.06 5.45 4.74 5.65 4.44C5.85 4.14 6.08 3.86 6.34 3.61C6.59 3.35 6.87 3.13 7.17 2.92C7.47 2.72 7.79 2.55 8.12 2.42C8.45 2.28 8.8 2.17 9.15 2.1C9.51 2.03 9.86 2 10.22 2C10.59 2 10.94 2.03 11.3 2.1C11.65 2.17 12 2.28 12.33 2.42C12.66 2.55 12.98 2.72 13.28 2.92C13.58 3.13 13.86 3.35 14.11 3.61C14.37 3.86 14.6 4.14 14.8 4.44C15 4.74 15.17 5.06 15.31 5.39C15.44 5.73 15.55 6.07 15.62 6.43C15.69 6.78 15.72 7.14 15.72 7.5C15.72 7.86 15.69 8.22 15.62 8.57C15.55 8.93 15.44 9.27 15.31 9.6C15.17 9.94 15 10.25 14.8 10.55C14.6 10.85 14.37 11.13 14.11 11.39C13.86 11.64 13.58 11.87 13.28 12.07C12.98 12.27 12.66 12.44 12.33 12.58C12 12.72 11.65 12.82 11.3 12.89C10.94 12.96 10.59 13 10.22 13C9.86 13 9.51 12.96 9.15 12.89C8.8 12.82 8.45 12.72 8.12 12.58C7.79 12.44 7.47 12.27 7.17 12.07C6.87 11.87 6.59 11.64 6.34 11.39C6.08 11.13 5.85 10.85 5.65 10.55C5.45 10.25 5.28 9.94 5.14 9.6C5.01 9.27 4.9 8.92 4.83 8.57C4.76 8.22 4.72 7.86 4.72 7.5ZM30.99 19.84C30.88 19.91 30.76 19.96 30.63 19.98C30.5 20.01 30.37 20 30.24 19.98C30.11 19.95 29.99 19.9 29.88 19.82C29.77 19.75 29.68 19.66 29.61 19.54C29.15 18.85 28.62 18.21 28.01 17.65C27.4 17.08 26.73 16.6 25.99 16.2C25.26 15.81 24.49 15.51 23.68 15.3C22.88 15.1 22.06 15 21.22 15C21.09 15 20.96 14.97 20.84 14.92C20.72 14.87 20.61 14.8 20.52 14.71C20.42 14.61 20.35 14.5 20.3 14.38C20.25 14.26 20.22 14.13 20.22 14C20.22 13.87 20.25 13.74 20.3 13.62C20.35 13.49 20.42 13.38 20.52 13.29C20.61 13.2 20.72 13.12 20.84 13.07C20.96 13.02 21.09 13 21.22 13C21.43 13 21.63 12.99 21.83 12.96C22.03 12.94 22.23 12.91 22.42 12.86C22.62 12.82 22.82 12.77 23.01 12.7C23.2 12.63 23.38 12.56 23.57 12.47C23.75 12.39 23.93 12.29 24.1 12.18C24.27 12.08 24.44 11.96 24.6 11.84C24.75 11.72 24.91 11.58 25.05 11.44C25.2 11.3 25.33 11.15 25.46 11C25.59 10.84 25.71 10.68 25.82 10.51C25.93 10.34 26.03 10.17 26.12 9.99C26.21 9.81 26.3 9.62 26.37 9.43C26.44 9.25 26.5 9.05 26.55 8.86C26.6 8.66 26.64 8.46 26.67 8.26C26.69 8.06 26.71 7.86 26.72 7.66C26.72 7.46 26.72 7.26 26.7 7.06C26.69 6.86 26.66 6.66 26.62 6.46C26.58 6.26 26.53 6.06 26.47 5.87C26.41 5.68 26.34 5.49 26.26 5.3C26.18 5.12 26.09 4.94 25.99 4.76C25.89 4.59 25.78 4.42 25.66 4.26C25.54 4.09 25.42 3.94 25.28 3.79C25.14 3.64 25 3.5 24.85 3.37C24.7 3.23 24.54 3.11 24.37 2.99C24.21 2.88 24.04 2.77 23.86 2.67C23.68 2.58 23.5 2.49 23.31 2.41C23.13 2.34 22.94 2.27 22.74 2.21C22.55 2.16 22.35 2.11 22.15 2.08C21.95 2.04 21.75 2.02 21.55 2.01C21.35 2 21.15 1.99 20.95 2C20.75 2.01 20.55 2.04 20.35 2.07C20.15 2.1 19.95 2.14 19.76 2.2C19.56 2.25 19.37 2.31 19.18 2.39C19.06 2.44 18.93 2.47 18.79 2.47C18.66 2.47 18.53 2.45 18.4 2.4C18.28 2.34 18.17 2.27 18.07 2.17C17.98 2.08 17.91 1.97 17.86 1.84C17.81 1.72 17.78 1.59 17.79 1.45C17.79 1.32 17.82 1.19 17.87 1.06C17.93 0.94 18 0.83 18.1 0.74C18.2 0.65 18.31 0.58 18.44 0.53C18.87 0.36 19.3 0.23 19.76 0.14C20.21 0.05 20.66 0.01 21.12 0C21.58 -0.01 22.04 0.03 22.49 0.11C22.94 0.19 23.38 0.3 23.82 0.46C24.25 0.62 24.66 0.82 25.05 1.05C25.45 1.29 25.82 1.56 26.16 1.86C26.51 2.17 26.82 2.5 27.11 2.86C27.39 3.22 27.64 3.6 27.86 4.01C28.07 4.42 28.25 4.84 28.38 5.28C28.52 5.72 28.61 6.16 28.67 6.62C28.72 7.08 28.73 7.53 28.7 7.99C28.67 8.45 28.6 8.9 28.49 9.35C28.37 9.79 28.22 10.23 28.03 10.64C27.83 11.06 27.61 11.46 27.34 11.83C27.07 12.21 26.78 12.55 26.45 12.87C26.12 13.2 25.76 13.48 25.38 13.74C26.59 14.18 27.7 14.81 28.71 15.62C29.72 16.42 30.58 17.37 31.28 18.45C31.36 18.56 31.4 18.68 31.43 18.81C31.45 18.94 31.45 19.07 31.42 19.2C31.4 19.33 31.35 19.45 31.27 19.56C31.2 19.67 31.1 19.76 30.99 19.84Z" fill="#A7E855" fill-opacity="1.000000" fill-rule="nonzero"/>
</svg>
