<svg width="25.002197" height="25.001579" viewBox="0 0 25.0022 25.0016" fill="none" xmlns="http://www.w3.org/2000/svg" xmlns:xlink="http://www.w3.org/1999/xlink">
	<desc>
			Created with Pixso.
	</desc>
	<defs/>
	<path id="path" d="M24 0L16 0C15.67 -3.44e-5 15.4 0.12 15.2 0.38L7.2 10.79L6 9.58C5.81 9.39 5.59 9.25 5.35 9.15C5.1 9.05 4.85 8.99 4.58 8.99C4.32 8.99 4.06 9.05 3.82 9.15C3.57 9.25 3.35 9.39 3.17 9.58L1.58 11.17C1.39 11.36 1.25 11.57 1.15 11.82C1.05 12.06 1 12.32 1 12.58C1 12.85 1.05 13.1 1.15 13.35C1.25 13.59 1.39 13.81 1.58 14L4.08 16.5L0.58 20C0.39 20.19 0.25 20.4 0.15 20.65C0.05 20.89 0 21.15 0 21.41C0 21.68 0.05 21.93 0.15 22.18C0.25 22.42 0.39 22.64 0.58 22.83L2.17 24.41C2.35 24.6 2.57 24.74 2.82 24.84C3.06 24.95 3.32 25 3.58 25C3.85 25 4.1 24.95 4.35 24.84C4.59 24.74 4.81 24.6 4.99 24.41L8.49 20.91L10.99 23.41C11.18 23.6 11.4 23.74 11.64 23.85C11.89 23.95 12.14 24 12.41 24C12.68 24 12.93 23.95 13.18 23.85C13.42 23.74 13.64 23.6 13.82 23.41L15.41 21.82C15.6 21.64 15.74 21.42 15.84 21.17C15.95 20.93 16 20.67 16 20.41C16 20.14 15.95 19.89 15.84 19.64C15.74 19.4 15.6 19.18 15.41 19L14.21 17.79L24.61 9.79C24.87 9.59 25 9.32 25 9L25 1C25 0.86 24.97 0.73 24.92 0.61C24.87 0.49 24.8 0.38 24.7 0.29C24.61 0.19 24.5 0.12 24.38 0.07C24.26 0.02 24.13 0 24 0ZM3.58 23L2 21.41L5.5 17.91L7.08 19.5L3.58 23ZM12.41 22L3 12.58L4.58 11L14 20.41L12.41 22ZM23 8.5L12.78 16.36L11.41 15L17.7 8.7C17.8 8.61 17.87 8.5 17.92 8.38C17.97 8.26 18 8.13 18 8C18 7.86 17.97 7.73 17.92 7.61C17.87 7.49 17.8 7.38 17.7 7.29C17.61 7.19 17.5 7.12 17.38 7.07C17.26 7.02 17.13 7 17 7C16.86 7 16.74 7.02 16.61 7.07C16.49 7.12 16.38 7.19 16.29 7.29L10 13.58L8.63 12.21L16.49 2L23 2L23 8.5Z" fill="#FF6640" fill-opacity="1.000000" fill-rule="nonzero"/>
</svg>
